<svg xmlns="http://www.w3.org/2000/svg" width="140" height="195" viewBox="0 0 140 195"><g stroke="#242b38" stroke-width="4" stroke-linejoin="round" stroke-linecap="round"><path fill="#34475b" d="M14 37Q17 6 67 3Q111 2 126 39L136 178Q74 204 5 176Z"/><path fill="#e6c28e" d="M43 13L98 13L91 49L106 160Q78 180 31 164L48 49Z"/><path fill="#fff0d0" d="M45 11L72 27L98 12L86 47L71 28L55 46Z"/><path fill="#34475b" d="M53 103h37v40Q72 159 53 142Z"/><path fill="none" stroke="#d7a653" stroke-width="3" d="M71 135V113M72 126l-10-6M72 121l9-7"/><path fill="none" stroke="#51667a" d="M20 52L17 165M119 52l5 113"/></g></svg>