<svg xmlns="http://www.w3.org/2000/svg" width="140" height="195" viewBox="0 0 140 195"><g stroke="#242b38" stroke-width="4" stroke-linejoin="round" stroke-linecap="round"><path fill="#ad8255" d="M14 37Q17 6 67 3Q111 2 126 39L136 178Q74 204 5 176Z"/><path fill="#e3d6b3" d="M50 8h42L82 182H63Z"/><path fill="#c9a777" d="M44 9L71 28L49 65L26 40ZM99 9L71 28L92 64L113 40Z"/><path fill="#d2b581" d="M18 78h34v32H20ZM93 78h32l-2 32H92ZM16 132h37v35H18ZM94 132h32l-2 35H95Z"/><path d="M22 84h25M99 84h19M21 139h26M101 139h19" stroke="#866441" stroke-width="3"/><circle fill="#876647" cx="74" cy="83" r="3"/><circle fill="#876647" cx="73" cy="120" r="3"/><path d="M72 54v119" stroke="#806846" stroke-width="2.5"/></g></svg>
