<svg xmlns="http://www.w3.org/2000/svg" width="140" height="195" viewBox="0 0 140 195"><g stroke="#242b38" stroke-width="4" stroke-linejoin="round" stroke-linecap="round"><path fill="#627883" d="M14 37Q17 6 67 3Q111 2 126 39L136 178Q74 204 5 176Z"/><path fill="#ece1c5" d="M48 8h45l-9 57H57Z"/><path fill="#324c62" d="M42 12l29 24-18 64-28-53ZM98 12 71 36l16 64 27-53Z"/><path fill="#bca169" d="M16 116q55 11 111 0l1 13q-61 15-112 0Z"/><path fill="#897652" d="M66 116h21v18H66Z"/><path stroke="#c8b277" fill="none" stroke-width="2.5" d="M34 37l19 11-9 22M108 37 89 48l8 21M30 152l-3 28m82-28 3 28"/><path fill="#718c93" d="M25 139h28l-2 24H28Z"/></g></svg>
