<svg xmlns="http://www.w3.org/2000/svg" width="140" height="195" viewBox="0 0 140 195"><g stroke="#242b38" stroke-width="4" stroke-linejoin="round" stroke-linecap="round"><path fill="#e6e8dc" d="M14 37Q17 6 67 3Q111 2 126 39L136 178Q74 204 5 176Z"/><path fill="#628c86" d="M49 11H94L86 64H55Z"/><path fill="#fbf8e9" d="M47 9L70 31L95 10L104 48L83 76L70 178L56 75L34 47Z"/><path fill="#dae0d4" d="M17 111H53L50 147H20ZM91 111h34l-2 36H94Z"/><path d="M23 116h22M99 116h20M75 78l-3 100" fill="none" stroke="#9baaa4" stroke-width="3"/><path stroke="#ab7953" d="M29 108V91M38 108V97"/><circle fill="#8da19a" cx="78" cy="97" r="3"/><circle fill="#8da19a" cx="75" cy="131" r="3"/></g></svg>
